<svg height="3.5in" preserveAspectRatio="none" viewBox="-120 -168 240 336" width="2.5in" class="card">
 <defs>
  <filter height="200%" width="200%" y="-50%" x="-50%" id="svg_3_blur">
   <feGaussianBlur stdDeviation="2.8" in="SourceGraphic"/>
  </filter>
 </defs>
 <symbol viewBox="0 0 1300 2000" preserveAspectRatio="none" id="J22">
  <path id="svg_2" d="m317.05664,1294.416l-217.05664,325.584l220,-60l40,240l140,-200l160,200l40,-200l180,180l60,-220l260,60l-236.67969,-304.3027m277.87839,-781.10782a75,75 0 0 1 -75,75a75,75 0 0 1 -75,-75a75,75 0 0 1 75,-75a75,75 0 0 1 75,75zm-261.08377,-300.49262a75,75 0 0 1 -75,75a75,75 0 0 1 -75,-75a75,75 0 0 1 75,-75a75,75 0 0 1 75,75zm-789.81937,197.04434a75,75 0 0 1 -75,75a75,75 0 0 1 -74.999997,-75a75,75 0 0 1 74.999997,-75a75,75 0 0 1 75,75zm734.05014,219.13028c42.40088,-50.45397 91.5936,-93.35356 167.5059,-106.53906c-0.4037,-3.03138 -0.6215,-6.0846 -0.6524,-9.14258c0.03,-15.96068 5.1503,-31.4957 14.6172,-44.3457c-79.4647,-52.76935 -174.69494,-43.41176 -265.8164,-50.24414c-78.01959,-51.92362 -35.89752,-101.82102 13.51758,-151.5957c-11.11344,-10.56248 -18.72271,-24.27729 -21.80274,-39.29688c-143.77106,13.55132 -289.23364,7.2301 -411.71484,270.89258c-50.91938,-188.61669 -141.38519,-149.38711 -232.22852,-107.98633c1.66108,6.24042 2.50924,12.66925 2.52344,19.12695c-0.0209,17.1896 -5.94587,33.85038 -16.7832,47.19336c66.82714,55.25532 117.5686,127.8306 155.76953,213.91016m55.60742,447.75586c51.89013,98.343 153.91815,159.9189 265.11133,160c111.19809,-0.076 213.23257,-61.6527 265.125,-160m179.875,-140a445,445 0 0 1 -445,445a445,445 0 0 1 -445,-445a445,445 0 0 1 445,-445a445,445 0 0 1 445,445z" fill="none" stroke-width="6" stroke-linejoin="round" stroke-linecap="round" stroke="black"/>
 </symbol>
 <g>
  <title>Layer 1</title>
  <rect filter="url(#svg_3_blur)" stroke-width="4" id="svg_3" stroke="#000000" fill="none" ry="12" rx="12" y="-167.5" x="-119.5" height="335" width="239"/>
  <use id="svg_4" xlink:href="#J21" y="-156" x="-101.4" height="312" width="202.8"/>
 </g>
</svg>